<?xml version="1.0" encoding="UTF-8"?>
<svg width="778px" height="201px" viewBox="0 0 778 201" version="1.1" xmlns="http://www.w3.org/2000/svg" xmlns:xlink="http://www.w3.org/1999/xlink">
    <title>UT_Logo_RGB_Blue</title>
    <g id="Page-1" stroke="none" stroke-width="1" fill="none" fill-rule="evenodd">
        <g id="UT_Logo_RGB_Blue" fill="#315CFD">
            <path d="M339.400536,133.4 L339.400536,31.6 C339.400536,14.6 325.6,0.7 308.5,0.7 L31.2,0.7 C14.2,0.7 0.3,14.5 0.3,31.6 L0.3,133.4 C0.3,150.4 14.1,164.3 31.2,164.3 L232,164.3 L286.4,200.6 L275.5,164.3 L308.7,164.3 C325.6,164.2 339.5,150.4 339.400536,133.4 L339.400536,133.4 Z M58.9,103 C60.5,105.8 62.6,108 65.3,109.4 C68,110.9 70.9,111.6 74.2,111.6 C77.5,111.6 80.5,110.8 83.2,109.3 C85.9,107.7 88.1,105.5 89.6,102.7 C91.2,99.8 92,96.6 92,92.9 L92,47.2 C92,46.5 92.2,46 92.6,45.6 C93,45.2 93.5,45 94.2,45 L105.3,45 C106,45 106.6,45.2 107,45.6 C107.2,45.8 107.4,46.1 107.5,46.3 C107.6,46.6 107.7,46.9 107.6,47.2 L107.6,92.8 C107.6,100.1 106.1,106.2 103.1,111.2 C100.1,116.1 96.1,119.8 91.1,122.1 C86.1,124.5 80.4,125.6 74.2,125.6 C68,125.6 62.4,124.4 57.3,122 C52.2,119.6 48.2,115.9 45.2,111 C42.2,106.1 40.7,100 40.7,92.7 L40.7,47.2 C40.7,46.6 40.9,46.1 41.3,45.7 C41.5,45.5 41.7,45.3 41.9,45.2 C42.1,45.1 42.4,45 42.7,45 L54.4,45 C55.1,45 55.7,45.2 56,45.6 C56.3,46 56.5,46.5 56.5,47.2 L56.5,92.9 C56.5,96.8 57.3,100.2 58.9,103 Z M118.1,110.9 C118.1,111.2 118.2,111.6 118.3,111.9 C118.5,112.3 118.7,112.7 118.9,113.1 C121.4,117 124.8,120.1 129,122.3 C133.2,124.5 138,125.6 143.3,125.6 C147.5,125.6 151.6,124.8 155.5,123.3 C159.4,121.7 162.5,119.4 165,116.2 C167.4,113.1 168.6,109.3 168.6,104.8 C168.6,100.1 167.1,95.8 164.1,92.1 C161.1,88.3 156.6,85.6 150.5,83.7 C149.7,83.4 149,83.2 148.3,83 C147.6,82.8 147,82.6 146.5,82.5 C143.5,81.7 141.3,81 139.9,80.4 C138.5,79.8 137.3,79.1 136.5,78.3 C135.6,77.4 135.2,76.3 135.2,74.8 C135.2,72.9 136,71.4 137.6,70.2 C139.2,69 141.4,68.4 144.2,68.4 C146.9,68.4 149.1,68.9 150.9,69.8 C152.7,70.7 154.4,72.2 156.1,74.1 C156.7,74.8 157.2,75.2 157.8,75.2 C158.2,75.2 158.7,75 159.2,74.5 L165.5,69.3 C166.2,68.7 166.6,68.2 166.6,67.7 C166.6,67.3 166.3,66.7 165.8,65.9 C163.4,62.9 160.4,60.3 156.8,58.3 C153.2,56.2 148.9,55.2 143.8,55.2 C139.1,55.2 135,56.1 131.4,58 C127.8,59.9 125.1,62.3 123.1,65.3 C121.2,68.3 120.2,71.3 120.2,74.4 C120.2,78.2 120.9,81.5 122.4,84.2 C123.9,86.9 126.1,89.2 129.1,91.1 C132.1,93 136,94.7 140.9,96.2 C143,96.8 144.3,97.2 144.6,97.3 C147,98 148.8,98.6 149.9,99.1 C151.1,99.6 152,100.2 152.6,101.1 C153.3,102 153.6,103.2 153.6,104.8 C153.6,106.3 153,107.7 151.9,108.9 C150.7,110.1 149.3,111 147.5,111.7 C145.8,112.3 143.9,112.7 142.1,112.7 C139.1,112.7 136.6,112 134.6,110.6 C132.6,109.2 130.7,107.3 129,104.9 C128.4,104.1 127.8,103.7 127.1,103.7 C126.7,103.7 126.3,103.9 125.9,104.1 L119,109 C118.4,109.6 118.1,110.2 118.1,110.9 Z M231,105.2 C231.6,105.2 232,105.4 232.3,105.9 L237.8,112.6 C238.2,113.2 238.5,113.7 238.5,114.2 C238.5,114.8 238.2,115.3 237.7,115.8 C233.7,119.3 229.8,121.8 225.8,123.4 C221.9,124.9 217.6,125.7 213.1,125.7 C207,125.7 201.2,124.1 195.8,121 C190.4,117.8 186.1,113.6 182.9,108.2 C179.7,102.8 178.1,97 178.1,90.7 C178.1,84.3 179.6,78.4 182.6,73.1 C185.6,67.7 189.7,63.5 195,60.3 C200.3,57.1 206.2,55.6 212.7,55.6 C218,55.6 223.2,56.9 228.4,59.5 C233.6,62.1 237.9,66 241.3,71.3 C244.7,76.6 246.4,83.1 246.4,90.8 C246.4,92.5 246.2,93.8 245.8,94.6 C245.4,95.4 244.8,95.9 244.2,96 C243.5,96.2 242.4,96.3 241,96.2 L193,96.2 C193.7,99.4 195.1,102.2 197,104.6 C198.9,107 201.3,108.9 204.1,110.2 C206.9,111.5 209.9,112.2 213.1,112.2 C215.6,112.2 217.7,111.9 219.6,111.4 C221.4,110.9 222.9,110.3 224.1,109.6 C225.5,108.8 226.8,107.9 228,106.9 L229.6,105.7 C230.1,105.3 230.6,105.2 231,105.2 Z M204.5,70.5 C201.9,71.8 199.7,73.6 197.8,75.8 C195.9,78 194.5,80.5 193.5,83.3 L231.6,83.3 C230,78.9 227.5,75.3 224.2,72.6 C220.9,69.9 217,68.6 212.7,68.6 C209.9,68.5 207.1,69.2 204.5,70.5 Z M268.6,56.1 L260.9,56.1 C259.5,56.1 258.8,56.9 258.8,58.4 L258.8,122.2 C258.8,123.7 259.5,124.4 260.9,124.4 L271.9,124.4 C273.4,124.4 274.1,123.7 274.1,122.2 L274.1,84.8 C274.1,81.4 274.7,78.6 276,76.3 C277.3,74 278.9,72.3 281,71.2 C283,70.1 285.2,69.5 287.5,69.5 C289.8,69.5 291.9,69.9 293.9,70.7 C295.9,71.6 297.8,72.6 299.6,73.8 C300.2,74.2 300.8,74.5 301.3,74.5 C301.9,74.5 302.3,74.2 302.8,73.6 L307.8,66.5 C308.2,66 308.4,65.5 308.4,65 C308.4,64.3 308,63.6 307.2,62.8 C305.2,61.1 302.6,59.4 299.4,57.8 C296.3,56.2 292.9,55.4 289.2,55.4 C285.8,55.4 282.7,56.2 279.9,57.8 C277.1,59.4 274.8,61.6 273,64.5 L271.9,58.6 C271.7,57.5 271.4,56.8 270.8,56.5 C270.3,56.2 269.6,56.1 268.6,56.1 Z" id="Shape"></path>
            <path d="M359.1,45 L416.3,45 C417.7,45 418.4,45.7 418.4,47.1 L418.4,57.2 C418.4,58.6 417.7,59.4 416.3,59.4 L395.2,59.4 L395.2,122.3 C395.2,123.7 394.5,124.4 393.1,124.4 L381.6,124.4 C380.2,124.4 379.5,123.7 379.5,122.3 L379.5,59.3 L359,59.3 C357.6,59.3 356.9,58.6 356.9,57.1 L356.9,47.1 C357,45.7 357.7,45 359.1,45 Z" id="Path" fill-rule="nonzero"></path>
            <path d="M469.5,105.2 C470.1,105.2 470.5,105.4 470.8,105.9 L476.3,112.6 C476.7,113.2 477,113.7 477,114.2 C477,114.8 476.7,115.3 476.2,115.8 C472.2,119.3 468.3,121.8 464.3,123.4 C460.3,125 456.1,125.7 451.6,125.7 C445.5,125.7 439.7,124.1 434.3,121 C428.9,117.8 424.6,113.6 421.4,108.2 C418.2,102.8 416.6,97 416.6,90.7 C416.6,84.3 418.1,78.4 421.1,73.1 C424.1,67.7 428.2,63.5 433.5,60.3 C438.8,57.1 444.7,55.6 451.2,55.6 C456.5,55.6 461.8,56.9 466.9,59.5 C472.1,62.1 476.4,66 479.8,71.3 C483.2,76.6 484.9,83.1 484.9,90.8 C484.9,92.5 484.7,93.8 484.3,94.6 C483.9,95.4 483.3,95.9 482.7,96 C482,96.2 480.9,96.3 479.5,96.3 L431.6,96.3 C432.3,99.5 433.7,102.3 435.6,104.7 C437.5,107.1 439.9,109 442.7,110.3 C445.5,111.6 448.5,112.3 451.8,112.3 C454.3,112.3 456.4,112 458.3,111.5 C460.1,111 461.6,110.4 462.8,109.7 C464.2,108.9 465.5,108 466.7,107 L468.3,105.8 C468.5,105.3 469,105.2 469.5,105.2 Z M442.9,70.5 C440.3,71.8 438.1,73.6 436.2,75.8 C434.3,78 432.9,80.5 431.9,83.3 L470.1,83.3 C468.5,78.9 466,75.3 462.7,72.6 C459.4,69.9 455.5,68.6 451.1,68.6 C448.3,68.5 445.4,69.2 442.9,70.5 L442.9,70.5 Z" id="Shape" fill-rule="nonzero"></path>
            <path d="M489.5,111.9 C489.4,111.6 489.3,111.2 489.3,110.9 C489.3,110.2 489.6,109.6 490.2,109 L497,103.8 C497.3,103.5 497.7,103.3 498.2,103.4 C498.9,103.4 499.6,103.8 500.1,104.6 C501.8,107 503.7,108.9 505.7,110.3 C507.7,111.7 510.2,112.4 513.2,112.4 C515.1,112.4 516.9,112.1 518.6,111.4 C520.4,110.7 521.9,109.8 523,108.6 C524.1,107.4 524.7,106 524.7,104.5 C524.7,102.9 524.4,101.7 523.7,100.8 C523,99.9 522.1,99.3 521,98.8 C519.9,98.3 518.1,97.7 515.7,97 C515.3,96.9 514.1,96.6 512,95.9 C507.1,94.4 503.2,92.7 500.2,90.8 C497.2,88.9 495,86.6 493.5,83.9 C492,81.2 491.3,77.9 491.3,74.1 C491.3,71 492.3,68 494.2,65 C496.1,62 498.9,59.6 502.5,57.7 C506.1,55.8 510.2,54.9 514.9,54.9 C519.9,54.9 524.3,55.9 527.9,58 C531.5,60.1 534.5,62.6 536.9,65.6 C537.5,66.3 537.7,66.9 537.7,67.4 C537.7,67.9 537.3,68.5 536.6,69 L530.3,74.2 C529.7,74.6 529.3,74.9 528.9,74.9 C528.4,74.9 527.8,74.5 527.2,73.8 C525.6,71.9 523.8,70.5 522,69.5 C520.2,68.6 517.9,68.1 515.3,68.1 C512.5,68.1 510.3,68.7 508.7,69.9 C507.1,71.1 506.3,72.6 506.3,74.5 C506.3,76 506.7,77.1 507.6,78 C508.5,78.9 509.6,79.6 511,80.1 C512.4,80.7 514.7,81.3 517.6,82.2 C518.2,82.3 518.8,82.5 519.4,82.7 C520.1,82.9 520.8,83.1 521.6,83.4 C527.7,85.2 532.2,88 535.2,91.8 C538.2,95.6 539.7,99.8 539.7,104.5 C539.7,108.9 538.5,112.7 536.1,115.9 C533.7,119 530.5,121.4 526.6,123 C522.7,124.6 518.6,125.4 514.4,125.3 C509.1,125.3 504.3,124.2 500.1,122 C495.9,119.8 492.6,116.7 490,112.8 C489.9,112.7 489.7,112.3 489.5,111.9 L489.5,111.9 Z" id="Path" fill-rule="nonzero"></path>
            <path d="M576.4,56.6 C577.9,56.6 578.7,57.4 578.7,58.9 L578.7,67.7 C578.7,68.4 578.5,69 578,69.4 C577.5,69.8 576.9,70 576.2,70 L568.5,70 L568.5,103.3 C568.5,105.7 568.9,107.6 569.8,109.1 C570.7,110.5 572.2,111.3 574.3,111.4 L576,111.5 C577.2,111.6 578,111.9 578.3,112.5 C578.6,113.1 578.8,113.8 578.7,114.5 L578.7,122.1 C578.7,123.9 577.3,124.8 574.6,124.8 C570.4,124.8 566.7,124 563.5,122.4 C560.2,120.8 557.7,118.5 555.9,115.5 C554.1,112.5 553.2,109 553.2,105 L553.2,70.1 L547,70.1 C546.4,70.1 545.8,69.9 545.4,69.5 C544.9,69.1 544.7,68.5 544.7,67.8 L544.7,59.1 C544.7,58.3 544.9,57.7 545.4,57.2 C545.8,56.8 546.4,56.6 547,56.6 L553.2,56.6 L553.2,45.4 C553.2,44.6 553.3,44.1 553.6,43.7 C553.9,43.3 554.5,43.1 555.3,42.8 L566.2,39.6 C566.4,39.5 566.6,39.5 566.8,39.5 C567,39.5 567.3,39.6 567.5,39.7 C567.7,39.8 567.9,40 568,40.2 C568.3,40.6 568.4,41.2 568.4,41.9 L568.4,56.5 L576.4,56.6 Z" id="Path" fill-rule="nonzero"></path>
            <path d="M593.3,31.7 L602.6,31.7 C604.6,31.7 605.6,32.8 605.6,35.1 L605.6,44.5 C605.6,45.6 605.4,46.4 604.9,46.8 C604.4,47.2 603.6,47.5 602.6,47.5 L593.3,47.5 C591.1,47.5 590,46.5 590,44.5 L590,35.1 C590,32.8 591.1,31.7 593.3,31.7 Z M591.1,56.7 C591.5,56.3 592,56.1 592.6,56.1 L603.9,56.1 C604.5,56.1 605,56.3 605.4,56.7 C605.8,57.1 606,57.6 606,58.3 L606,122.2 C606,123.6 605.3,124.4 603.9,124.4 L592.6,124.4 C591.2,124.4 590.5,123.7 590.5,122.2 L590.5,58.3 C590.5,57.6 590.7,57.1 591.1,56.7 L591.1,56.7 Z" id="Shape" fill-rule="nonzero"></path>
            <path d="M632.4,123.8 C631.8,124.2 631,124.4 630.3,124.4 L620.5,124.4 C619,124.4 618.2,123.6 618.2,122.1 L618.2,58.3 C618.2,56.8 619,56 620.5,56 L627.7,56 C628.4,56 629.2,56.3 629.7,56.8 C630.3,57.3 630.7,58 630.9,58.7 L631.8,66.4 C634.4,62.7 637.5,60 641.2,58.2 C644.9,56.4 648.9,55.5 653,55.5 C657.1,55.5 661.1,56.5 665,58.6 C668.9,60.7 672.1,63.9 674.7,68.2 C677.2,72.5 678.5,77.9 678.5,84.3 L678.5,122 C678.5,123.5 677.8,124.2 676.4,124.2 L665.7,124.2 C664.2,124.2 663.4,123.5 663.4,122 L663.4,84.8 C663.4,82.2 662.8,79.8 661.5,77.5 C660.2,75.2 658.4,73.3 656.2,71.9 C653.9,70.5 651.4,69.8 648.6,69.8 C646.2,69.8 643.8,70.4 641.5,71.7 C639.1,73 637.2,74.8 635.7,77.2 C634.2,79.6 633.4,82.4 633.4,85.5 L633.4,121.9 C633.3,122.8 633,123.3 632.4,123.8 Z" id="Path" fill-rule="nonzero"></path>
            <path d="M752.7,130.8 C749.7,136.2 745.7,140.3 740.5,143.1 C735.3,145.9 729.3,147.2 722.6,147.2 C718.1,147.2 713.7,146.4 709.4,144.9 C705,143.4 701.3,141.3 698.2,138.7 C697.6,138.2 697.3,137.7 697.3,137.1 C697.3,136.7 697.5,136.2 698,135.5 L702.5,129 C703,128.3 703.6,127.9 704.4,127.9 C705,127.9 705.6,128.1 706.3,128.6 C711,131.9 716.8,133.5 723.9,133.5 C727.5,133.5 730.7,132.7 733.5,131.1 C736.3,129.6 738.6,127.3 740.1,124.5 C741.7,121.7 742.5,118.5 742.5,114.9 L742.5,114.7 C739.5,117.9 736.3,120.3 733,121.9 C729.7,123.5 725.8,124.3 721.4,124.3 C715.5,124.3 709.9,122.9 704.8,119.9 C699.6,117 695.5,112.9 692.4,107.7 C689.3,102.5 687.7,96.6 687.8,90 C687.8,83.8 689.3,78 692.4,72.7 C695.5,67.4 699.6,63.1 704.8,59.9 C710,56.7 715.5,55.1 721.4,55.1 C729.9,55.1 737.2,58.4 743.3,64.9 L744.2,58.6 C744.3,57.6 744.6,56.9 745,56.5 C745.4,56.1 746,55.9 746.8,55.9 L755.4,55.9 C756.7,55.9 757.4,56.7 757.4,58.2 L757.4,110.7 C757.1,118.8 755.6,125.4 752.7,130.8 Z M740.1,79.7 C738.3,76.5 735.9,73.9 732.8,72 C729.7,70.1 726.3,69.1 722.4,69.1 C718.4,69.1 714.9,70.1 711.8,72 C708.7,73.9 706.4,76.5 704.6,79.8 C702.9,83.1 702,86.6 702,90.5 C702,94.6 702.9,98.2 704.7,101.4 C706.5,104.6 709,107.1 712.1,108.9 C715.2,110.7 718.7,111.6 722.5,111.6 C726.3,111.6 729.7,110.7 732.7,108.8 C735.7,106.9 738.1,104.3 739.9,101.1 C741.6,97.8 742.5,94.3 742.5,90.5 C742.7,86.5 741.8,82.9 740.1,79.7 L740.1,79.7 Z" id="Shape" fill-rule="nonzero"></path>
            <path d="M770.1,56.1 C765.8,56.1 762.3,59.6 762.3,63.9 C762.3,68.2 765.8,71.7 770.1,71.7 C774.4,71.7 777.9,68.2 777.9,63.9 C777.9,59.7 774.4,56.1 770.1,56.1 Z M770.1,70.1 C766.8,70.1 764,67.3 764,63.9 C764,60.5 766.8,57.7 770.1,57.7 C773.4,57.7 776.2,60.4 776.2,63.9 C776.2,67.3 773.4,70.1 770.1,70.1 Z" id="Shape" fill-rule="nonzero"></path>
            <path d="M767.1,59.7 C767.1,59.7 767.2,59.6 767.3,59.6 L770.9,59.6 C771.4,59.6 771.9,59.7 772.3,60 C772.7,60.3 773,60.6 773.3,61 C773.5,61.4 773.7,61.9 773.7,62.4 C773.7,62.9 773.6,63.3 773.3,63.8 C773,64.2 772.7,64.6 772.2,64.8 L773.8,67.9 C773.8,67.9 773.8,68 773.8,68 C773.8,68 773.8,68.1 773.8,68.1 C773.8,68.1 773.7,68.1 773.7,68.1 L772.2,68.1 C772.1,68.1 772.1,68.1 772,68.1 C772,68.1 771.9,68 771.9,67.9 L770.5,65.1 L768.8,65.1 L768.8,67.8 C768.8,68 768.7,68 768.6,68 L767.4,68 C767.2,68 767.2,67.9 767.2,67.8 L767.2,59.7 C767,59.8 767,59.7 767.1,59.7 Z M768.7,63.8 L770.5,63.8 C770.8,63.8 771,63.7 771.2,63.6 C771.4,63.5 771.6,63.3 771.7,63.1 C771.8,62.9 771.9,62.7 771.9,62.4 C771.9,62.2 771.8,61.9 771.7,61.7 C771.6,61.5 771.4,61.3 771.2,61.2 C771,61.1 770.8,61 770.5,61 L768.7,61 L768.7,63.8 Z" id="Shape" fill-rule="nonzero"></path>
        </g>
    </g>
</svg>